# xmcd CD database file
#
# Track frame offsets:
#	150
#	20874
#	35763
#	58780
#	75788
#	95833
#	97627
#	113832
#	134795
#	161942
#	191652
#	224886
#	241947
#	260140
#
# Disc length: 4138 seconds
#
# Revision: 0
# Processed by: cddbd v1.4PL0 Copyright (c) Steve Scherf et al.
# Submitted via: CDex 1.40Release
#
DISCID=d310280e
DTITLE=One Light Town - One Light Town
DYEAR=2002
DGENRE=Country
TTITLE0=Along For The Ride
TTITLE1=Indecision
TTITLE2=Elk Hall
TTITLE3=For Kay
TTITLE4=Burn
TTITLE5=Snow Peas
TTITLE6=Jodi
TTITLE7=Miss U
TTITLE8=Tennessee Whiskey
TTITLE9=Cemetary Road
TTITLE10=Sun Goes Down
TTITLE11="The King"
TTITLE12=Cover
TTITLE13=Hitch My Wagon, w/ hidden track My Hometown
EXTD=YEAR: 2002 ID3G: 2
EXTT0=
EXTT1=
EXTT2=
EXTT3=
EXTT4=
EXTT5=
EXTT6=
EXTT7=
EXTT8=
EXTT9=
EXTT10=
EXTT11=
EXTT12=
EXTT13=
PLAYORDER=
